<svg width="128" height="128" viewBox="0 0 128 128" fill="none" xmlns="http://www.w3.org/2000/svg">
<g clip-path="url(#clip0_304_558)">
<path d="M63.9999 31.4667C70.1866 31.4667 75.1999 36.48 75.1999 42.6667C75.1999 48.8534 70.1866 53.8667 63.9999 53.8667C57.8133 53.8667 52.7999 48.8534 52.7999 42.6667C52.7999 36.48 57.8133 31.4667 63.9999 31.4667ZM63.9999 79.4667C79.8399 79.4667 96.5332 87.2534 96.5332 90.6667V96.5334H31.4666V90.6667C31.4666 87.2534 48.1599 79.4667 63.9999 79.4667ZM63.9999 21.3334C52.2132 21.3334 42.6666 30.88 42.6666 42.6667C42.6666 54.4534 52.2132 64 63.9999 64C75.7866 64 85.3332 54.4534 85.3332 42.6667C85.3332 30.88 75.7866 21.3334 63.9999 21.3334ZM63.9999 69.3334C49.7599 69.3334 21.3333 76.48 21.3333 90.6667V106.667H106.667V90.6667C106.667 76.48 78.2399 69.3334 63.9999 69.3334Z" fill="#5B919D"/>
</g>
<defs>
<clipPath id="clip0_304_558">
<rect width="128" height="128" fill="white"/>
</clipPath>
</defs>
</svg>
