<svg width="150" height="124" viewBox="0 0 150 124" fill="none" xmlns="http://www.w3.org/2000/svg">
<g clip-path="url(#clip0_1_272)">
<path d="M149.276 31.5012C148.441 27.8878 144.546 17.9948 139.902 24.6859C131.95 36.1451 123.998 47.6043 116.046 59.0635C112.727 63.8449 108.743 68.2181 104.501 72.3712C101.16 69.6279 97.0837 67.7529 93.0272 66.1462C89.1441 64.6089 84.7606 63.7811 81.1855 61.5585C79.5561 60.5453 78.0147 59.4484 76.2865 58.7258C76.6717 56.4949 77.0278 54.259 77.3581 52.019C79.3536 51.2276 81.2918 50.2922 83.152 49.2218C82.7295 48.3427 82.0554 47.5844 81.2295 47.0629C81.8512 46.4272 82.473 45.7914 83.0947 45.1565C83.2914 44.9545 83.5022 44.7252 83.5105 44.4438C83.5222 44.0622 83.1694 43.7832 82.8523 43.5688C81.4927 42.6516 80.1322 41.7344 78.7726 40.8172C78.8547 40.0374 78.9336 39.2576 79.0091 38.477C79.0689 37.862 79.1237 37.2395 79.171 36.612C80.5339 28.3083 80.9872 19.8565 80.5173 11.4552C80.4667 10.5372 80.3862 9.56783 79.8533 8.81784C79.1527 7.83276 77.8064 7.47515 76.6078 7.64651C75.41 7.81786 74.3243 8.42795 73.2917 9.05707C70.5981 10.6994 68.0382 12.5578 65.6419 14.6066C65.0002 14.4088 64.3577 14.2192 63.7211 14.0338C60.2124 13.009 56.5187 11.9941 52.8814 11.6787C51.5126 9.0132 49.9421 6.45199 48.1849 4.02489C47.476 3.04643 46.7115 2.06549 45.6731 1.44547C44.6339 0.825452 43.2535 0.635886 42.2259 1.27495C41.444 1.76169 40.9941 2.62426 40.5915 3.45123C37.0405 10.7392 34.2598 18.3996 32.3075 26.2645C31.7829 27.5153 31.309 28.781 30.874 30.0351C30.4025 31.3969 29.956 32.7677 29.5343 34.1451C27.8235 34.8148 26.1128 35.4837 24.402 36.1526C24.0459 36.2916 23.64 36.4878 23.5678 36.862C23.5139 37.1385 23.6683 37.4083 23.8168 37.6484C24.2833 38.4042 24.7507 39.1599 25.2188 39.9165C24.2983 40.2452 23.4732 40.8362 22.8681 41.6028C24.1132 42.746 25.4247 43.8188 26.7926 44.813C25.6546 50.2591 24.8926 55.783 24.5149 61.3325C24.3921 61.3549 24.2867 61.441 24.2609 61.609C23.8359 64.3026 23.7255 67.0253 23.9314 69.7322C23.8002 70.1842 23.6749 70.6361 23.5562 71.0864C22.5626 74.8529 21.8803 78.7005 21.5076 82.5763C21.0635 87.1971 21.0602 91.8609 21.4952 96.4833C21.6072 97.667 21.701 99.1562 21.8405 100.784C20.6784 101.25 19.5545 101.833 18.443 102.411C14.7841 104.315 -2.40639 110.416 0.284662 115.181C1.91905 118.075 5.86017 118.473 9.19037 118.528C16.8095 118.655 24.5523 118.766 31.8983 116.744V116.741H31.9024C31.9157 116.995 32.193 117.249 32.4918 117.09C32.6802 116.989 32.8661 116.887 33.0504 116.782C33.2969 116.787 33.5443 116.79 33.7892 116.793C35.3356 116.813 36.882 116.832 38.4284 116.852C37.1833 118.103 36.6437 119.354 37.3053 120.525C38.9389 123.418 42.8808 123.817 46.2102 123.872C51.7093 123.964 56.9503 122.966 61.5032 119.46C62.2693 118.871 63.0629 118.083 63.79 117.171C65.7938 117.196 67.7967 117.221 69.8005 117.246C69.9042 117.341 70.0387 117.36 70.159 117.328C73.1929 120.786 87.8808 119.223 91.5414 119.329C93.4688 119.384 100.648 118.586 102.668 117.908C102.889 117.835 103.076 117.675 103.234 117.45C104.543 117.085 105.819 116.458 107.054 115.429C113.115 110.375 112.654 100.963 112.936 93.8865C113.119 89.3162 112.444 84.5978 110.614 80.4406C116.222 78.2072 121.736 75.7221 126.904 72.6013C132.977 68.9342 138.602 64.2927 142.803 58.6314C144.208 56.7391 145.454 54.7325 146.504 52.6108C149.699 46.1557 150.906 38.5598 149.276 31.5003V31.5012Z" fill="#F3E1CD"/>
<path d="M62.3565 41.3966C60.9487 42.3693 59.1342 42.6491 57.5123 42.0639C56.2083 41.5928 55.1383 40.5713 54.5589 39.323C55.091 39.2253 55.5608 39.0068 55.9841 38.7874C57.2525 38.1302 60.4075 36.8611 59.5243 35.3786C58.6719 33.9489 53.8642 33.4763 52.0214 33.2255C51.1549 33.1071 50.1845 33.0301 49.5952 33.3629C48.9892 33.7056 49.0199 34.3537 49.1909 34.9315C49.4997 35.9721 50.1455 37.0101 51.0719 37.9563C51.5715 38.4671 52.248 38.9894 53.0499 39.2336C52.0189 40.078 50.6394 40.4877 49.308 40.2228C49.1162 40.1848 48.927 40.1334 48.7427 40.0705C48.5593 39.9372 48.409 39.8205 48.2887 39.8859C47.2096 39.3801 46.3364 38.4538 45.9238 37.3272C45.7528 36.8603 44.9975 37.0615 45.1701 37.5341C45.7047 38.9919 46.8634 40.1939 48.3127 40.7452C48.4132 41.0622 48.5402 41.3793 48.5783 41.5109C48.6406 41.7253 48.8705 42.1806 49.181 42.7244C49.4557 42.3312 49.7811 41.9728 50.1737 41.664C50.7207 41.2336 51.6321 41.3312 52.2472 41.52C52.556 41.6144 52.8523 41.7038 53.1503 41.7667C51.6853 43.467 51.0984 45.8717 51.657 48.0596C51.7807 48.5455 52.5344 48.3394 52.4107 47.8526C51.8629 45.7053 52.5676 43.3784 54.1497 41.8511L54.2418 41.8453C54.7963 41.7973 55.262 41.7832 55.7758 42.0481C56.4075 42.3726 56.8698 42.9711 57.0682 43.64C57.3471 43.3991 57.5837 43.1673 57.7605 42.9579C59.4463 43.4049 61.3181 43.0589 62.75 42.0696C63.1608 41.7857 62.7707 41.1102 62.3557 41.3966H62.3565Z" fill="#553C46"/>
<path d="M78.4845 13.7615C78.4754 13.1373 78.4148 12.4502 77.9665 12.0156C77.3332 11.4014 76.284 11.6108 75.473 11.961C74.013 12.5926 72.743 13.6381 71.4066 14.461C70.0835 15.2755 68.8932 16.6927 69.7216 18.3044C70.7002 20.2075 72.2591 21.9807 73.4776 23.7422C73.8802 24.3242 74.3956 24.9682 75.1045 24.9674C75.947 24.9665 76.4699 24.0725 76.7746 23.2886C77.9491 20.2613 78.5335 17.0073 78.4845 13.7615Z" fill="#F0836B"/>
<path d="M41.1087 18.1521C41.7619 18.4253 42.4874 18.0304 43.0842 17.6488C44.8912 16.4932 47.0154 15.4593 48.6556 14.081C50.0442 12.9138 49.4956 11.1481 48.5908 9.88654C47.6777 8.61256 46.9116 7.15894 45.8093 6.0141C45.1975 5.37835 44.311 4.78151 43.4884 5.10352C42.9066 5.33199 42.5845 5.94291 42.3338 6.51492C41.0315 9.49002 40.3093 12.7159 40.2197 15.9609C40.1964 16.8011 40.3326 17.8268 41.1095 18.1529L41.1087 18.1521Z" fill="#F0836B"/>
<path d="M43.7258 27.0352C41.5203 26.4632 40.1623 28.8274 39.6801 30.5575C41.3593 30.5881 43.0376 30.6187 44.7169 30.6494C46.4824 30.6817 44.9244 27.3456 43.7266 27.0352H43.7258Z" fill="#553C46"/>
<path d="M66.9276 31.6857C65.7016 31.5111 62.9732 33.987 64.6134 34.6377C66.1731 35.256 67.7336 35.8752 69.2941 36.4936C69.5199 34.7122 69.1829 32.0078 66.9276 31.6857Z" fill="#553C46"/>
<path d="M70.4047 116.77C69.6436 115.589 69.5863 114.145 70.0387 112.836C70.4919 111.524 71.4863 110.489 72.6724 109.796C75.5303 108.127 78.9792 108.496 82.1086 108.972C82.3717 109.012 82.7045 108.803 82.5892 108.493C79.508 100.189 80.6211 90.7823 85.594 83.4463C86.8914 81.5324 88.4319 79.7932 90.1643 78.2593C90.5411 77.9257 89.9866 77.3752 89.6115 77.708C83.0424 83.5241 79.4831 92.235 80.148 100.977C80.3331 103.41 80.8294 105.813 81.6271 108.118C79.0224 107.743 76.3123 107.516 73.7947 108.423C71.5328 109.237 69.5547 110.951 69.0799 113.389C68.8268 114.686 69.0061 116.041 69.7291 117.163C69.7498 117.195 69.7739 117.223 69.7996 117.247C69.9034 117.342 70.0378 117.361 70.1582 117.329C70.3873 117.268 70.5682 117.025 70.4039 116.769L70.4047 116.77Z" fill="#553C46"/>
<path d="M55.7774 42.0481C55.2644 41.7841 54.7979 41.7981 54.2434 41.8453L54.1513 41.8511C52.57 43.3784 51.8645 45.7045 52.4123 47.8527C52.5368 48.3402 51.7823 48.5455 51.6586 48.0596C51.1 45.8717 51.6868 43.467 53.1519 41.7667C52.8539 41.7046 52.5576 41.6152 52.2488 41.52C51.6337 41.3313 50.7223 41.2336 50.1753 41.664C49.7827 41.9728 49.4573 42.3312 49.1825 42.7245C48.6496 43.486 48.3068 44.3759 48.0404 45.2807C47.803 46.0845 47.6403 47.0679 47.6835 48.024C47.7316 49.0902 48.0362 50.1217 48.78 50.8302C49.8308 51.8319 51.4395 51.9196 52.8913 51.8493C53.767 51.807 54.7498 51.5984 55.2478 50.8236C56.1725 49.3833 56.0388 47.5729 56.6265 46.0092C56.8058 45.5348 57.1395 45.0175 57.1702 44.5059C57.1885 44.2145 57.1519 43.919 57.0681 43.6367C56.8706 42.9687 56.4074 42.3702 55.7757 42.0448L55.7774 42.0481Z" fill="#F0836B"/>
<path d="M52.6108 31.5583C54.1688 30.9896 55.9833 31.3215 57.2093 32.4473C57.5787 32.7867 58.1332 32.2371 57.7621 31.896C56.3427 30.5923 54.2228 30.1419 52.4025 30.8067C51.9343 30.978 52.1368 31.7313 52.61 31.5583H52.6108Z" fill="#553C46"/>
<path d="M25.1499 73.1361C24.4709 69.4035 24.4236 65.565 25.0146 61.8176C25.0661 61.4939 24.7548 61.2911 24.5149 61.3342C24.392 61.3565 24.2866 61.4426 24.2609 61.6107C23.8359 64.3043 23.7255 67.0269 23.9314 69.7338C24.0235 70.9416 24.1787 72.146 24.3954 73.3439C24.4858 73.8364 25.2387 73.6278 25.1499 73.1361Z" fill="#553C46"/>
<path d="M47.9524 94.509C48.1201 94.0347 47.3655 93.8302 47.1987 94.3012C45.3078 99.6504 45.297 105.597 47.1605 110.952C44.3093 112.114 41.6049 113.594 39.0998 115.384C38.6947 115.673 39.084 116.35 39.4941 116.057C42.0548 114.227 44.8281 112.706 47.7565 111.548C47.9408 111.476 48.1084 111.284 48.0296 111.069C46.0931 105.746 46.0648 99.8491 47.9524 94.509Z" fill="#553C46"/>
<path d="M39.1762 111.509C39.4833 111.12 38.9338 110.564 38.6234 110.958C36.8495 113.211 34.6308 115.07 32.0966 116.417C31.9514 116.495 31.8957 116.619 31.9024 116.743C31.9157 116.997 32.1929 117.25 32.4917 117.091C32.6801 116.991 32.8661 116.889 33.0504 116.783C35.4077 115.437 37.497 113.643 39.1762 111.51V111.509Z" fill="#553C46"/>
</g>
<defs>
<clipPath id="clip0_1_272">
<rect width="150" height="123" fill="white" transform="translate(0 0.878418)"/>
</clipPath>
</defs>
</svg>
