<svg width="25" height="24" viewBox="0 0 25 24" fill="none" xmlns="http://www.w3.org/2000/svg">
<path d="M16.6 13.3L15.15 11.85C15.3 11.0667 15.075 10.3333 14.475 9.64999C13.875 8.96665 13.1 8.69999 12.15 8.84999L10.7 7.39999C10.9833 7.26665 11.2708 7.16666 11.5625 7.09999C11.8542 7.03332 12.1667 6.99999 12.5 6.99999C13.75 6.99999 14.8125 7.43749 15.6875 8.31249C16.5625 9.18749 17 10.25 17 11.5C17 11.8333 16.9667 12.1458 16.9 12.4375C16.8333 12.7292 16.7333 13.0167 16.6 13.3ZM19.8 16.45L18.35 15.05C18.9833 14.5667 19.5458 14.0375 20.0375 13.4625C20.5292 12.8875 20.95 12.2333 21.3 11.5C20.4667 9.81666 19.2708 8.47916 17.7125 7.48749C16.1542 6.49582 14.4167 5.99999 12.5 5.99999C12.0167 5.99999 11.5417 6.03332 11.075 6.09999C10.6083 6.16665 10.15 6.26665 9.7 6.39999L8.15 4.84999C8.83333 4.56665 9.53333 4.35415 10.25 4.21249C10.9667 4.07082 11.7167 3.99999 12.5 3.99999C15.0167 3.99999 17.2583 4.69582 19.225 6.08749C21.1917 7.47916 22.6167 9.28332 23.5 11.5C23.1167 12.4833 22.6125 13.3958 21.9875 14.2375C21.3625 15.0792 20.6333 15.8167 19.8 16.45ZM20.3 22.6L16.1 18.45C15.5167 18.6333 14.9292 18.7708 14.3375 18.8625C13.7458 18.9542 13.1333 19 12.5 19C9.98333 19 7.74167 18.3042 5.775 16.9125C3.80833 15.5208 2.38333 13.7167 1.5 11.5C1.85 10.6167 2.29167 9.79582 2.825 9.03749C3.35833 8.27915 3.96667 7.59999 4.65 6.99999L1.9 4.19999L3.3 2.79999L21.7 21.2L20.3 22.6ZM6.05 8.39999C5.56667 8.83332 5.125 9.30832 4.725 9.82499C4.325 10.3417 3.98333 10.9 3.7 11.5C4.53333 13.1833 5.72917 14.5208 7.2875 15.5125C8.84583 16.5042 10.5833 17 12.5 17C12.8333 17 13.1583 16.9792 13.475 16.9375C13.7917 16.8958 14.1167 16.85 14.45 16.8L13.55 15.85C13.3667 15.9 13.1917 15.9375 13.025 15.9625C12.8583 15.9875 12.6833 16 12.5 16C11.25 16 10.1875 15.5625 9.3125 14.6875C8.4375 13.8125 8 12.75 8 11.5C8 11.3167 8.0125 11.1417 8.0375 10.975C8.0625 10.8083 8.1 10.6333 8.15 10.45L6.05 8.39999Z" fill="#BA783B"/>
</svg>
