<svg width="110" height="165" viewBox="0 0 110 165" fill="none" xmlns="http://www.w3.org/2000/svg">
<g clip-path="url(#clip0_1_210)">
<path d="M102.47 126.22C100.234 126.626 98.0215 127.168 95.8468 127.847C95.3615 127.998 95.1562 127.238 95.6382 127.088C97.8631 126.393 100.128 125.841 102.418 125.43C102.281 123.883 101.941 122.277 101.435 120.644C99.3549 122.59 97.1751 124.424 94.894 126.131C94.4878 126.435 94.0962 125.751 94.4972 125.451C96.8285 123.706 99.0534 121.823 101.168 119.823C100.442 117.692 99.4562 115.527 98.3092 113.407C96.9537 117.242 95.2525 120.946 93.2183 124.468C92.9646 124.907 92.2859 124.509 92.5397 124.07C94.5704 120.553 96.27 116.858 97.6136 113.025C97.6732 112.854 97.8094 112.774 97.9516 112.76C95.9379 109.155 93.4899 105.703 91.1024 102.791C92.0731 104.334 92.9024 105.965 93.5776 107.666C93.7649 108.138 93.0046 108.341 92.8198 107.875C92.1437 106.173 91.3042 104.538 90.3139 102.998C89.4556 101.663 88.4867 100.402 87.4147 99.2326C86.9004 98.6712 86.3248 98.0099 85.5763 97.7693C84.73 97.498 84.2029 98.0901 83.7729 98.7351C83.1437 99.6771 82.5008 100.616 81.9695 101.618C81.2934 102.893 80.8387 104.255 80.5356 105.663C80.5092 105.784 80.3866 105.918 80.2614 105.938C79.8025 106.012 79.347 106.109 78.8931 106.207C72.8519 107.518 66.8686 109.848 61.8083 113.438C61.6772 113.531 61.4337 113.5 61.3324 113.376C58.7601 110.249 54.8143 108.466 50.7784 108.594C49.8835 112.348 49.4364 116.189 49.4501 120.05C49.4518 120.557 48.6659 120.556 48.6642 120.05C48.6505 116.025 49.1282 112.012 50.0844 108.104C50.127 107.929 50.2939 107.824 50.4633 107.814C54.6858 107.576 58.9116 109.377 61.6772 112.579C63.3733 111.398 65.164 110.362 67.0227 109.46C69.9092 108.061 72.9379 106.952 76.0288 106.103C77.2804 105.759 78.5508 105.439 79.8323 105.219C80.2138 103.555 80.8234 101.971 81.6953 100.5C82.024 99.945 82.3825 99.4083 82.7401 98.8717C83.1096 98.3171 83.4536 97.6882 84.0003 97.2864C84.6116 96.8367 85.2383 96.8265 85.8318 97.0398C81.8571 92.9784 78.5236 89.3053 76.0705 83.5256C73.1968 76.7552 73.7375 69.0907 70.8408 62.3426C68.1365 56.044 63.1128 50.789 57.1414 47.499C48.82 42.9146 37.8905 41.2201 28.4953 43.924C28.5635 44.1638 28.629 44.4044 28.7014 44.6416C28.8495 45.1288 28.09 45.3344 27.9436 44.8506C27.8729 44.6185 27.809 44.3847 27.7418 44.1518C26.6706 44.4905 25.6191 44.8813 24.5981 45.3403C24.7548 45.7064 24.186 46.0101 23.9008 45.6731C21.8189 46.6782 19.8606 47.9393 18.0861 49.4913C6.70445 59.445 3.43139 76.8952 6.37068 91.1995C9.03323 104.155 20.8082 118.034 33.0328 127.625C33.0235 127.581 33.0158 127.537 33.0022 127.493L32.9741 127.414C32.969 127.401 32.9587 127.376 32.9536 127.366L32.8949 127.262C32.8915 127.257 32.8685 127.223 32.8566 127.205C32.8421 127.188 32.8149 127.154 32.8097 127.149L32.7212 127.062C32.5637 126.918 32.5764 126.651 32.7212 126.505C32.8762 126.35 33.1205 126.362 33.2772 126.505C33.5301 126.736 33.7106 127.051 33.7872 127.386C33.8502 127.662 33.8528 127.95 33.8051 128.232C36.804 130.537 39.8191 132.577 42.7226 134.276C42.5344 133.363 42.3462 132.455 42.1478 131.562C42.038 131.067 42.7958 130.858 42.9056 131.353C43.1611 132.501 43.3995 133.653 43.6456 134.803C43.8082 134.894 43.9725 134.991 44.1335 135.081C46.1574 136.201 47.5351 137.969 48.7297 139.884C54.4516 138.564 60.1667 137.213 65.8843 135.875C66.3773 135.76 66.5859 136.519 66.0929 136.635C60.4494 137.954 54.8084 139.288 49.1606 140.592C49.8537 141.757 50.5025 142.954 51.2032 144.076C51.7976 145.028 52.5051 145.893 53.297 146.683C57.5297 144.112 61.7615 141.542 65.9942 138.972C66.4284 138.708 66.8235 139.39 66.391 139.652C62.223 142.183 58.0542 144.715 53.8862 147.246C54.8493 148.115 55.9247 148.88 57.0886 149.54C64.6855 153.848 75.9871 153.8 83.5064 150.298C83.4723 150.002 83.8785 149.708 84.1842 149.964L84.1876 149.968C84.9088 149.6 85.5925 149.201 86.2269 148.767C90.9934 145.509 94.9613 143.007 97.8052 139.667C97.7038 139.594 97.6017 139.518 97.5003 139.446C97.0925 139.152 97.485 138.47 97.8971 138.766C98.0325 138.863 98.1662 138.964 98.3007 139.062C100.399 136.394 101.813 133.169 102.385 128.639C102.484 127.857 102.505 127.047 102.47 126.219L102.47 126.22Z" fill="#F3E1CD"/>
<path d="M83.9985 97.2873C83.4519 97.6891 83.1079 98.3171 82.7383 98.8726C82.3807 99.4092 82.0231 99.9459 81.6936 100.501C80.8217 101.972 80.212 103.557 79.8306 105.22C78.5491 105.44 77.2787 105.76 76.027 106.104C72.9353 106.953 69.9067 108.062 67.021 109.461C65.1623 110.362 63.3708 111.399 61.6755 112.58C58.9099 109.378 54.6849 107.577 50.4616 107.815C50.2921 107.825 50.1253 107.93 50.0827 108.104C49.1265 112.013 48.648 116.026 48.6624 120.05C48.6641 120.557 49.45 120.558 49.4483 120.05C49.4347 116.19 49.8817 112.349 50.7766 108.595C54.8126 108.467 58.7583 110.249 61.3306 113.377C61.4328 113.501 61.6755 113.532 61.8066 113.439C66.8669 109.848 72.8502 107.519 78.8914 106.208C79.3452 106.109 79.8008 106.013 80.2597 105.939C80.3849 105.918 80.5083 105.785 80.5339 105.664C80.8379 104.255 81.2917 102.894 81.9678 101.619C82.4991 100.617 83.1419 99.6788 83.7712 98.736C84.2012 98.091 84.7282 97.4989 85.5746 97.7702C86.323 98.0108 86.8986 98.672 87.4129 99.2335C88.4849 100.403 89.4548 101.663 90.3122 102.999C91.3025 104.539 92.142 106.174 92.8181 107.876C93.0028 108.341 93.7632 108.139 93.5759 107.667C92.9007 105.966 92.0713 104.335 91.1007 102.792C90.1819 101.333 89.1372 99.9536 87.9681 98.6772C87.4078 98.0663 86.6509 97.3376 85.8283 97.0415C85.2357 96.8282 84.609 96.8385 83.9968 97.2881L83.9985 97.2873Z" fill="#332F28"/>
<path d="M70.564 131.937C71.5129 131.937 72.2822 130.875 72.2822 129.566C72.2822 128.257 71.5129 127.196 70.564 127.196C69.615 127.196 68.8457 128.257 68.8457 129.566C68.8457 130.875 69.615 131.937 70.564 131.937Z" fill="#332F28"/>
<path d="M84.5512 120.633C83.6018 120.633 82.8329 121.695 82.8329 123.003C82.8329 124.312 83.6026 125.375 84.5512 125.375C85.4997 125.375 86.2694 124.313 86.2694 123.003C86.2694 121.694 85.4997 120.633 84.5512 120.633Z" fill="#332F28"/>
<path d="M83.2611 134.414C83.3318 134.404 83.2203 134.416 83.2058 134.417C83.1658 134.42 83.1258 134.421 83.0866 134.422C83.0006 134.424 82.9146 134.42 82.8286 134.412L82.7698 134.405H82.7767C82.7375 134.398 82.6983 134.391 82.66 134.382C82.5825 134.365 82.5059 134.344 82.4301 134.321C82.2675 134.269 82.2002 134.24 82.0316 134.145C81.9618 134.106 81.8937 134.063 81.8273 134.018C81.7438 133.961 81.7464 133.962 81.6834 133.909C81.422 133.688 81.2653 133.502 81.1112 133.222C81.1095 133.218 81.1078 133.214 81.1052 133.21C81.0856 132.903 81.0328 132.596 80.9341 132.298C80.946 132.289 80.9605 132.283 80.9724 132.274C81.6587 131.736 81.5224 131.049 81.6723 130.299C81.7753 129.781 81.0592 129.746 81.0592 129.746C80.0196 130.056 78.7892 130.484 78.1787 131.473C77.9463 131.851 78.1872 132.162 78.5329 132.355C78.9868 132.607 79.5709 132.717 80.109 132.633C80.1473 132.909 80.2282 133.177 80.344 133.43C80.3474 134.647 79.5921 135.895 78.4427 136.309C78.2426 136.38 78.1089 136.577 78.1685 136.793C78.2213 136.987 78.4512 137.14 78.6521 137.068C79.8655 136.631 80.7144 135.559 81.0047 134.35C81.055 134.398 81.1052 134.446 81.1589 134.49C81.8187 135.03 82.6234 135.288 83.4715 135.172C83.6818 135.143 83.7967 134.873 83.7456 134.687C83.6835 134.46 83.4732 134.384 83.262 134.413L83.2611 134.414Z" fill="#332F28"/>
<path d="M65.8818 135.876C60.1641 137.214 54.4491 138.565 48.7272 139.885C48.573 139.921 48.4198 139.957 48.2657 139.993C47.7727 140.106 47.9813 140.867 48.4743 140.752C48.7025 140.699 48.9298 140.646 49.1572 140.594C54.805 139.289 60.446 137.956 66.0895 136.636C66.5817 136.521 66.3739 135.761 65.8809 135.877L65.8818 135.876Z" fill="#332F28"/>
<path d="M65.9916 138.973C61.759 141.544 57.5272 144.114 53.2945 146.685C53.2851 146.691 53.2749 146.697 53.2655 146.703C52.8338 146.965 53.2281 147.646 53.6623 147.383C53.7364 147.337 53.8096 147.293 53.8837 147.248C58.0517 144.716 62.2205 142.185 66.3884 139.653C66.8201 139.39 66.4259 138.71 65.9916 138.973Z" fill="#332F28"/>
<path d="M66.9777 141.477C64.6608 144.343 62.3439 147.21 60.0279 150.076C59.712 150.467 60.2655 151.028 60.584 150.633C62.9008 147.767 65.2177 144.901 67.5337 142.035C67.8496 141.644 67.2961 141.083 66.9777 141.477Z" fill="#332F28"/>
<path d="M97.6137 113.026C96.27 116.859 94.5705 120.554 92.5397 124.071C92.286 124.51 92.9646 124.908 93.2184 124.468C95.2517 120.946 96.9529 117.242 98.3093 113.408C98.3297 113.35 98.3519 113.294 98.3723 113.236C98.4805 112.928 98.2063 112.736 97.9526 112.761C97.8104 112.776 97.6741 112.855 97.6145 113.026H97.6137Z" fill="#332F28"/>
<path d="M94.8931 126.131C97.1742 124.424 99.354 122.589 101.434 120.644C102.299 119.835 103.152 119.012 103.98 118.162C104.333 117.8 103.778 117.242 103.424 117.605C102.687 118.361 101.934 119.099 101.168 119.823C99.0525 121.824 96.8276 123.706 94.4963 125.451C94.0953 125.752 94.4869 126.435 94.8931 126.131Z" fill="#332F28"/>
<path d="M109.621 124.609C107.203 124.727 104.797 125.003 102.418 125.429C100.127 125.84 97.8622 126.392 95.6373 127.087C95.1563 127.237 95.3615 127.998 95.846 127.846C98.0206 127.167 100.233 126.625 102.469 126.219C104.83 125.791 107.218 125.513 109.621 125.396C110.124 125.371 110.128 124.584 109.621 124.608V124.609Z" fill="#332F28"/>
<path d="M83.5047 150.3C83.5141 150.377 83.5456 150.455 83.6265 150.523C85.8965 152.43 88.2321 154.471 89.9103 156.945C90.6758 158.072 91.5264 159.576 91.1109 160.99C90.9355 161.587 90.5293 162.059 90.0551 162.445C89.6617 162.764 90.2211 163.318 90.6111 163.002C93.77 160.434 90.7303 156.418 88.7242 154.223C87.3244 152.691 85.7739 151.302 84.1867 149.968C84.1859 149.967 84.1842 149.966 84.1833 149.964C83.8785 149.708 83.4715 150.003 83.5055 150.298L83.5047 150.3Z" fill="#332F28"/>
<path d="M88.6407 159.592C88.4636 159.475 88.2056 159.557 88.1026 159.734C87.9902 159.927 88.066 160.155 88.2439 160.273C88.7063 160.58 88.9694 161.16 88.9932 161.712C89.0196 162.314 88.8272 162.864 88.3529 163.257C88.1894 163.393 88.2133 163.673 88.3529 163.814C88.5147 163.976 88.7446 163.95 88.9089 163.814C90.2032 162.743 90.0107 160.503 88.6407 159.593V159.592Z" fill="#332F28"/>
<path d="M85.4392 161.312C85.67 161.725 85.8854 162.143 86.0327 162.585C86.0847 162.741 86.1281 162.899 86.1579 163.06L86.1681 163.123C86.1698 163.137 86.1741 163.165 86.1749 163.176C86.1792 163.242 86.1843 163.309 86.1834 163.376C86.1834 163.429 86.1664 163.492 86.1741 163.544C86.1741 163.548 86.1741 163.547 86.1724 163.55L86.1587 163.619C86.1468 163.671 86.1332 163.722 86.1162 163.771L86.0966 163.825C86.0131 163.99 85.922 164.145 85.8199 164.3C85.7024 164.477 85.7849 164.736 85.9612 164.839C86.1536 164.951 86.381 164.875 86.4993 164.697C86.7684 164.293 86.9668 163.873 86.971 163.376C86.9779 162.506 86.5317 161.652 86.1196 160.914C85.8726 160.471 85.1932 160.868 85.441 161.312L85.4392 161.312Z" fill="#332F28"/>
<path d="M84.8714 164.089C83.3259 164.516 81.1419 163.837 80.8873 162.056C80.786 161.343 80.9844 160.622 81.2475 159.966C81.3267 159.769 81.1606 159.533 80.9733 159.481C80.7485 159.42 80.5697 159.558 80.4897 159.756C80.0094 160.95 79.8374 162.403 80.6446 163.501C81.2977 164.389 82.3382 164.842 83.4094 164.968C83.9645 165.033 84.5401 164.997 85.08 164.847C85.567 164.712 85.3601 163.952 84.8714 164.088V164.089Z" fill="#332F28"/>
<path d="M42.1453 131.563C42.3437 132.456 42.531 133.364 42.72 134.277C43.672 138.886 44.6554 143.646 47.295 147.56C48.8191 149.82 50.9052 151.586 53.4469 152.589C55.2001 153.281 57.1005 153.557 58.9363 153.941C61.1271 154.401 63.3137 154.897 65.5122 155.315C67.3923 155.673 69.3072 155.803 71.1856 156.164C73.1372 156.539 74.9321 157.267 76.4843 158.529C76.8743 158.846 77.4337 158.292 77.0403 157.972C75.7461 156.92 74.296 156.149 72.6884 155.703C71.1396 155.274 69.5312 155.117 67.9432 154.906C65.8784 154.631 63.8502 154.168 61.8126 153.741C59.6984 153.297 57.5603 152.914 55.4623 152.4C52.7325 151.731 50.3484 150.232 48.6011 148.023C46.9067 145.881 45.8688 143.284 45.0897 140.689C44.5081 138.751 44.0653 136.779 43.6439 134.802C43.3986 133.652 43.1594 132.5 42.9039 131.352C42.7941 130.857 42.0354 131.067 42.1461 131.561L42.1453 131.563Z" fill="#332F28"/>
<path d="M97.4987 139.447C97.6 139.519 97.7022 139.594 97.8035 139.668C100.591 141.681 103.45 143.891 105.511 146.67C106.446 147.93 107.465 149.615 107.108 151.262C106.965 151.927 106.606 152.491 106.123 152.962C105.761 153.316 106.317 153.873 106.679 153.519C110.003 150.274 106.059 145.744 103.617 143.407C101.961 141.824 100.151 140.407 98.2991 139.062C98.1637 138.964 98.0309 138.863 97.8955 138.766C97.4834 138.47 97.0909 139.153 97.4987 139.446V139.447Z" fill="#332F28"/>
<path d="M104.711 149.93C104.534 149.813 104.276 149.895 104.173 150.072C104.06 150.265 104.136 150.493 104.314 150.611C104.776 150.918 105.039 151.498 105.063 152.05C105.09 152.652 104.897 153.202 104.423 153.595C104.259 153.731 104.283 154.011 104.423 154.152C104.585 154.314 104.815 154.288 104.979 154.152C106.273 153.081 106.081 150.842 104.711 149.931V149.93Z" fill="#332F28"/>
<path d="M102.645 151.012C102.284 150.656 101.728 151.213 102.089 151.569C102.906 152.376 103.051 153.69 102.48 154.669C101.504 155.12 100.373 155.291 99.3659 154.833C98.5638 154.468 97.9269 153.768 97.6196 152.942C97.4442 152.471 96.6838 152.675 96.8618 153.151C97.2492 154.191 98.0112 155.086 99.033 155.541C100.325 156.117 101.719 155.911 102.963 155.311C103.078 155.255 103.138 155.171 103.158 155.079C103.923 153.807 103.702 152.053 102.646 151.011L102.645 151.012Z" fill="#332F28"/>
<path d="M33.7847 127.386C33.7081 127.051 33.5275 126.736 33.2747 126.505C33.118 126.362 32.8736 126.35 32.7186 126.505C32.5739 126.651 32.5611 126.918 32.7186 127.062L32.8072 127.149C32.8115 127.154 32.8396 127.189 32.854 127.205C32.8659 127.224 32.8898 127.257 32.8923 127.262L32.9511 127.366C32.9562 127.376 32.9664 127.401 32.9715 127.414L32.9996 127.493C33.0133 127.537 33.0209 127.581 33.0303 127.625C33.0328 127.639 33.0371 127.653 33.0396 127.667C33.0422 127.685 33.0473 127.716 33.0482 127.728L33.0533 127.834C33.0541 127.905 33.049 127.976 33.0439 128.047L33.0362 128.094L33.0175 128.185C32.9996 128.261 32.9775 128.335 32.9511 128.409C32.9468 128.421 32.9264 128.468 32.9247 128.475L32.8855 128.556C32.8523 128.62 32.8166 128.683 32.7765 128.742L32.7238 128.818C32.7808 128.737 32.7025 128.843 32.6897 128.857C32.6429 128.91 32.5935 128.961 32.5407 129.008C32.5356 129.012 32.5024 129.039 32.4862 129.053C32.4675 129.066 32.4351 129.088 32.43 129.09C32.3798 129.123 32.327 129.149 32.2742 129.175C32.2588 129.181 32.2146 129.199 32.2018 129.203L32.1149 129.227C32.1005 129.23 32.04 129.24 32.0324 129.242C32.0034 129.245 31.9745 129.247 31.9455 129.248C31.7335 129.255 31.5521 129.424 31.5521 129.642C31.5521 129.861 31.7318 130.043 31.9455 130.037C32.9349 130.003 33.6493 129.16 33.8043 128.231C33.8511 127.95 33.8494 127.662 33.7864 127.385L33.7847 127.386Z" fill="#332F28"/>
<path d="M29.6363 126.014C29.4678 125.884 29.1961 125.988 29.0982 126.155C28.9799 126.358 29.0701 126.564 29.2396 126.694C29.4039 126.822 29.5648 127.02 29.684 127.235C29.7564 127.365 29.7828 127.427 29.8228 127.545C29.8679 127.678 29.9011 127.816 29.9233 127.955C29.9241 127.963 29.9258 127.972 29.9267 127.978L29.9361 128.084C29.9403 128.154 29.942 128.224 29.9412 128.295C29.9386 128.45 29.9318 128.51 29.9071 128.63C29.8543 128.89 29.7845 129.063 29.6534 129.268C28.4681 128.906 27.2352 128.395 26.382 127.46C26.2356 127.299 26.1547 127.196 26.0355 127.005C25.9886 126.93 25.9444 126.852 25.9035 126.773C25.8814 126.729 25.8601 126.686 25.8396 126.642L25.8107 126.577V126.573C25.7494 126.415 25.7 126.253 25.6651 126.087L25.6455 125.981L25.6395 125.945C25.6319 125.872 25.6251 125.799 25.6217 125.726C25.6157 125.579 25.6251 125.435 25.637 125.289C25.637 125.284 25.637 125.283 25.637 125.28C25.637 125.276 25.6387 125.274 25.6395 125.268L25.6549 125.182C25.6659 125.123 25.6796 125.064 25.6949 125.005C25.7179 124.918 25.7059 124.844 25.6813 124.776C25.958 124.718 26.1215 124.263 25.8124 124.032C18.3433 118.45 10.7916 112.488 6.05397 104.279C1.03454 95.5799 -0.508329 84.9615 1.90815 75.2024C3.2986 69.589 5.97904 64.3442 9.72552 59.9441C10.0525 59.5602 9.49817 59.0005 9.16951 59.387C2.37731 67.3655 -0.829334 77.9224 0.183066 88.3463C0.679475 93.4545 2.12783 98.4758 4.48045 103.037C6.62701 107.2 9.53223 110.917 12.8291 114.225C16.6224 118.032 20.89 121.324 25.184 124.538C25.0733 124.57 24.9762 124.648 24.9371 124.795C24.777 125.406 24.8017 126.073 25.0094 126.671C25.3534 127.659 26.1138 128.413 26.9849 128.96C27.7478 129.438 28.6001 129.77 29.4584 130.031C29.627 130.083 29.759 130.021 29.8433 129.917C30.011 129.961 30.183 129.89 30.2835 129.742C30.682 129.159 30.7918 128.436 30.682 127.746C30.5713 127.05 30.1907 126.44 29.6372 126.014H29.6363Z" fill="#332F28"/>
<path d="M26.8894 89.8096C26.5284 88.2379 25.9537 86.7217 25.1933 85.302C24.954 84.8549 24.2754 85.2525 24.5147 85.6996C27.8048 91.8445 27.1381 99.8495 22.8373 105.343C22.5282 105.737 23.0808 106.298 23.3933 105.9C26.9124 101.405 28.1666 95.3649 26.8894 89.8096Z" fill="#332F28"/>
<path d="M27.0997 111.402C26.7975 111.004 26.1146 111.396 26.4211 111.8C29.7351 116.165 32.5338 120.903 34.7587 125.914C34.9639 126.376 35.6417 125.976 35.4374 125.516C33.2125 120.505 30.4137 115.767 27.0997 111.402Z" fill="#332F28"/>
<path d="M24.5947 45.3421C24.5828 45.3139 24.5768 45.2866 24.5556 45.2584C21.1888 40.721 19.5336 35.1179 19.5446 29.4874C19.5557 23.8425 21.211 18.1856 24.4159 13.527C27.5902 8.91279 32.2401 5.38897 37.3915 3.26444C42.5455 1.13906 48.2427 0.334465 53.7781 1.02899C59.6677 1.76788 66.0376 4.26015 69.2911 9.5254C70.8475 12.045 71.6718 15.1362 71.1456 18.0901C70.7045 20.561 68.8296 23.9841 65.7983 23.1173C63.5019 22.4611 62.3328 19.6464 61.2847 17.7411C60.027 15.4553 58.405 13.5321 56.2184 12.0851C51.841 9.18752 46.1055 8.48532 41.1499 10.1824C35.9006 11.981 31.6509 16.0944 29.1237 20.9834C26.118 26.7981 25.6523 33.5991 26.766 39.9727C27.0129 41.384 27.3441 42.7773 27.7375 44.1535C27.8039 44.3865 27.8686 44.6202 27.9393 44.8523C28.0858 45.3361 28.8453 45.1296 28.6971 44.6433C28.6247 44.4052 28.5592 44.1646 28.4911 43.9257C26.6442 37.4386 26.2934 30.3603 28.6614 23.9603C30.6547 18.5739 34.706 13.8094 39.9987 11.4725C45.059 9.23787 51.1189 9.68666 55.7603 12.725C56.8953 13.4673 57.9239 14.3692 58.8026 15.4041C59.6549 16.4075 60.2842 17.5474 60.9117 18.6984C61.9863 20.6694 63.2516 23.2086 65.5897 23.8766C68.3229 24.6582 70.5427 22.3801 71.4385 20.0192C72.4866 17.2582 72.1971 14.0791 71.1055 11.3803C68.7342 5.5161 62.9348 2.18938 57.0247 0.814831C51.4927 -0.471832 45.632 -0.211598 40.2014 1.42915C34.8005 3.06137 29.7751 6.07325 25.9843 10.2831C22.1587 14.5313 19.7831 19.9143 19.0261 25.5729C18.2751 31.1905 19.1104 37.0479 21.6835 42.1186C22.3128 43.3583 23.0476 44.5392 23.8761 45.6552C23.882 45.6629 23.8906 45.6663 23.8965 45.674C24.1818 46.0118 24.7505 45.7072 24.5939 45.3412L24.5947 45.3421Z" fill="#332F28"/>
<path d="M56.6706 112.582C55.4691 111.684 53.5176 110.664 52.3017 112.127C51.8308 112.694 51.635 113.424 51.5958 114.15C51.5447 115.097 51.7933 116.05 51.6452 116.994C51.612 117.206 51.6997 117.416 51.9193 117.479C52.1058 117.533 52.3698 117.414 52.403 117.204C52.5367 116.349 52.4098 115.514 52.38 114.657C52.3579 114.029 52.4183 113.371 52.7589 112.827C53.6197 111.451 55.3567 112.577 56.2738 113.263C56.4449 113.391 56.7114 113.289 56.8119 113.121C56.9311 112.922 56.84 112.709 56.6706 112.582Z" fill="#332F28"/>
<path d="M85.4461 100.5C85.2936 100.441 85.0748 100.537 85.0024 100.681C84.403 101.865 83.8027 103.05 83.2033 104.234C82.9751 104.686 83.6529 105.085 83.8819 104.632C84.4285 103.552 84.976 102.471 85.5227 101.39C86.6321 101.924 87.4845 102.942 87.82 104.128C87.9579 104.616 88.7166 104.408 88.5778 103.919C88.1342 102.35 86.9583 101.087 85.4461 100.5Z" fill="#332F28"/>
<path d="M48.3423 125.296C47.6935 128.789 47.3835 132.335 47.4261 135.889C47.4321 136.396 48.2188 136.397 48.212 135.889C48.1694 132.406 48.4632 128.931 49.1001 125.506C49.1921 125.01 48.4342 124.798 48.3423 125.297V125.296Z" fill="#332F28"/>
</g>
<defs>
<clipPath id="clip0_1_210">
<rect width="110" height="165" fill="white"/>
</clipPath>
</defs>
</svg>
